name Walk9.mot
datacolumns 19
datarows 10
range 1.12600000 1.13500000
endheader

                time	   L_ground_force_vx	   L_ground_force_vy	   L_ground_force_vz	   L_ground_force_px	   L_ground_force_py	   L_ground_force_pz	   R_ground_force_vx	   R_ground_force_vy	   R_ground_force_vz	   R_ground_force_px	   R_ground_force_py	   R_ground_force_pz	   L_ground_torque_x	   L_ground_torque_y	   L_ground_torque_z	   R_ground_torque_x	   R_ground_torque_y	   R_ground_torque_z	
          1.12600000	         -3.72856819	        115.68219210	         -7.78388615	          0.00302752	          0.00000000	         -0.00195236	          0.00000001	         -0.00000009	         -0.00000001	         -0.00000000	          0.00000000	         -0.00000000	          0.00000000	          0.14518316	          0.00000000	          0.00000000	         -0.00000000	          0.00000000	
          1.12700000	         -4.45347155	        124.66144877	         -8.28834868	         -0.01509674	          0.00000000	         -0.00343863	          0.00000001	         -0.00000008	         -0.00000000	         -0.00000000	          0.00000000	         -0.00000000	          0.00000000	          0.15981150	          0.00000000	          0.00000000	         -0.00000000	          0.00000000	
          1.12800000	         -5.22874014	        133.90910887	         -8.80245098	         -0.03316308	          0.00000000	         -0.00492435	          0.00000001	         -0.00000008	         -0.00000000	         -0.00000000	          0.00000000	         -0.00000000	          0.00000000	          0.17524074	          0.00000000	          0.00000000	         -0.00000000	          0.00000000	
          1.12900000	         -6.05582263	        143.41301101	         -9.32502966	         -0.05112727	          0.00000000	         -0.00640598	          0.00000001	         -0.00000007	         -0.00000000	         -0.00000000	          0.00000000	         -0.00000000	          0.00000000	          0.19147941	          0.00000000	          0.00000000	         -0.00000000	          0.00000000	
          1.13000000	         -6.93608570	        153.15890199	         -9.85478390	         -0.06894456	          0.00000000	         -0.00787992	          0.00000001	         -0.00000007	         -0.00000000	         -0.00000000	          0.00000000	         -0.00000000	          0.00000000	          0.20853333	          0.00000000	          0.00000000	         -0.00000000	          0.00000000	
          1.13100000	         -7.87080109	        163.13028867	        -10.39026729	         -0.08656940	          0.00000000	         -0.00934244	          0.00000001	         -0.00000006	         -0.00000000	         -0.00000000	          0.00000000	         -0.00000000	          0.00000000	          0.22640529	          0.00000000	          0.00000000	         -0.00000000	          0.00000000	
          1.13200000	         -8.86113154	        173.30829889	        -10.92988035	         -0.10395562	          0.00000000	         -0.01078975	          0.00000001	         -0.00000005	         -0.00000000	         -0.00000000	          0.00000000	         -0.00000000	          0.00000000	          0.24509482	          0.00000000	          0.00000000	         -0.00000000	          0.00000000	
          1.13300000	         -9.90811441	        183.67159743	        -11.47186584	         -0.12105779	          0.00000000	         -0.01221805	          0.00000002	         -0.00000005	         -0.00000000	         -0.00000000	          0.00000000	         -0.00000000	          0.00000000	          0.26459776	          0.00000000	          0.00000000	         -0.00000000	          0.00000000	
          1.13400000	        -11.01264269	        194.19641373	        -12.01430816	         -0.13783355	          0.00000000	         -0.01362378	          0.00000002	         -0.00000004	          0.00000000	          0.00000000	          0.00000000	          0.00000000	          0.00000000	          0.28490603	          0.00000000	          0.00000000	         -0.00000000	          0.00000000	
          1.13500000	        -12.17544462	        204.85671676	        -12.55513581	         -0.15424500	          0.00000000	         -0.01500370	          0.00000002	         -0.00000003	          0.00000000	          0.00000000	          0.00000000	          0.00000000	          0.00000000	          0.30600756	          0.00000000	          0.00000000	         -0.00000000	          0.00000000	
